<?xml version="1.0" encoding="UTF-8" standalone="no"?>
<!-- Created with Inkscape (http://www.inkscape.org/) -->

<svg
   version="1.1"
   id="svg1"
   width="628.0885"
   height="552.1521"
   viewBox="0 0 628.0885 552.15212"
   sodipodi:docname="شعار.pdf"
   inkscape:version="1.3 (0e150ed6c4, 2023-07-21)"
   inkscape:dataloss="true"
   xml:space="preserve"
   xmlns:inkscape="http://www.inkscape.org/namespaces/inkscape"
   xmlns:sodipodi="http://sodipodi.sourceforge.net/DTD/sodipodi-0.dtd"
   xmlns="http://www.w3.org/2000/svg"
   xmlns:svg="http://www.w3.org/2000/svg"><defs
     id="defs1" /><sodipodi:namedview
     id="namedview1"
     pagecolor="#ffffff"
     bordercolor="#000000"
     borderopacity="0.25"
     inkscape:showpageshadow="2"
     inkscape:pageopacity="0.0"
     inkscape:pagecheckerboard="0"
     inkscape:deskcolor="#d1d1d1"
     inkscape:zoom="0.72426352"
     inkscape:cx="442.51849"
     inkscape:cy="826.35668"
     inkscape:window-width="1920"
     inkscape:window-height="1009"
     inkscape:window-x="-8"
     inkscape:window-y="-8"
     inkscape:window-maximized="1"
     inkscape:current-layer="g1" /><g
     id="g1"
     inkscape:groupmode="layer"
     inkscape:label="1"
     transform="translate(-1177.8882,-1326.6667)"><path
       id="path4"
       d="m 1465.7536,1716.3228 c -13.3387,-3.0214 -31.7134,-9.8654 -40.828,-15.208 -22.7094,-13.308 -53.4854,-48.7974 -68.204,-78.6574 -11.5254,-23.3746 -15.5667,-44.448 -15.2547,-67.5253 0.3333,-24.792 3.2293,-42.1147 18.3333,-72.0933 8.4267,-16.724 17.3067,-31.032 19.74,-31.792 2.5667,-0.808 5.484,4.948 6.9787,13.776 1.4067,8.3386 4.76,18.172 7.4533,21.8533 4.2134,5.7613 5.1774,3.2453 6.8747,-17.9573 2.532,-31.4947 17.1987,-62.8654 40.6467,-86.928 18.6666,-19.1614 63.9106,-48.1507 82.0306,-52.5614 l 10.5307,-2.5626 -7.5773,16.692 c -14.86,32.7506 -8.292,60.448 30.0826,126.932 12.9947,22.5106 24.6667,46.1573 25.948,52.552 1.276,6.3906 3.7507,12.5053 5.4947,13.584 5.464,3.3746 15.7867,-21.6614 20.5213,-49.7707 l 4.5467,-26.9747 10.0267,17.204 c 15.1293,25.9574 19.468,48.968 17.192,91.124 -2.812,52.032 -13.3387,82.9694 -37.052,108.9174 -34.6254,37.8853 -83,51.7453 -137.484,39.396 z"
       style="fill:#ffffff;stroke:none;stroke-width:1.33333"
       inkscape:export-filename="RC_logo_white.svg"
       inkscape:export-xdpi="96"
       inkscape:export-ydpi="96" /><path
       id="path5"
       d="m 1184.5869,1872.4108 c -6.188,-6.864 -6.6987,-21.6774 -6.6987,-193.552 v -186.1254 l 10.328,-8.124 c 6.6107,-5.1986 14.5374,-7.7133 22.0214,-6.98 l 11.6933,1.1467 1.9107,149.536 c 1.724,134.276 2.604,150.584 8.656,159.812 10.0373,15.308 24.4013,20.9693 60.4013,23.8187 40.3493,3.192 81.6613,13.9 110.1773,28.5666 24.4014,12.548 45.9734,28.9534 42.588,32.3814 -1.224,1.2333 -12.4266,0.208 -24.8946,-2.2814 -28.6574,-5.7293 -129.0534,-5.5266 -164.3707,0.328 -56.4533,9.3587 -64.5467,9.5254 -71.812,1.4734 z m 566.5053,2.6666 c -5.964,-1.7866 -33.6933,-5.312 -61.62,-7.8333 -39.636,-3.572 -60.708,-3.552 -95.9893,0.084 -24.8653,2.5627 -47.776,5.6507 -50.9227,6.8533 -13.2706,5.0947 -0.948,-9.5146 19.776,-23.4373 30.568,-20.5467 69.0107,-32.6453 119.1467,-37.5107 45.8587,-4.4466 59.5627,-9.3693 69.88,-25.1093 6.0467,-9.228 6.932,-25.536 8.6507,-159.812 l 1.9173,-149.536 12.38,-1.1987 c 9.1507,-0.88 14.9013,1.3227 22.02,8.4427 l 9.6413,9.6413 v 183.1507 c 0,207.792 1.0254,200.4373 -27.984,199.844 -8.8333,-0.1773 -20.9386,-1.792 -26.896,-3.5787 z m -295.5466,-33 c -18.048,-16.036 -56.7667,-36.344 -85.6627,-44.9266 -11.296,-3.3547 -39.728,-8.0627 -63.1813,-10.464 -27.5734,-2.8174 -45.016,-6.4374 -49.3494,-10.2387 -6.1973,-5.4427 -6.6973,-19.1 -6.6973,-182.7813 0,-206.8547 -3.272,-191.828 41.3747,-190.1934 29.812,1.0894 76.968,10.1987 82.7546,15.984 2.6254,2.6254 2.7134,5.704 0.2507,8.9907 -16.152,21.536 -32.7613,50.172 -40.292,69.4733 -12.7187,32.584 -12.86,90.2454 -0.292,120.5574 10.6467,25.6933 36.7187,62.828 56.932,81.088 17.048,15.4013 49.532,31.672 70.8653,35.4906 l 14.3587,2.572 v 59.188 c 0,32.5574 -1.2907,59.12 -2.8693,59.0307 -1.5774,-0.088 -9.7654,-6.2853 -18.192,-13.7707 z m 52.5613,-44.4733 1.0573,-58.4067 21.5894,-2.3173 c 51.4066,-5.5267 96.8693,-44.1467 116.0826,-98.6093 3.188,-9.032 7.62,-31.1147 9.8547,-49.068 7.5107,-60.4427 -5.12,-107.948 -38.9173,-146.396 -8.1294,-9.244 -14.78,-18.0827 -14.78,-19.64 0,-7.7134 49.8533,-18.776 89.1706,-19.7867 42.048,-1.0787 38.9387,-14.964 40.2667,179.8907 0.624,92.0773 0.1187,173 -1.1253,179.8173 -1.24,6.8227 -5.2027,13.9587 -8.7974,15.8653 -3.5933,1.9054 -25.1453,5.452 -47.8906,7.8854 -22.744,2.4373 -52.9054,7.9266 -67.02,12.2133 -28.7974,8.7347 -70.688,31.9787 -84.74,47.02 -5.1094,5.464 -10.7547,9.9373 -12.5467,9.9373 -1.792,0 -2.7867,-26.2853 -2.204,-58.4053 z"
       style="fill:#ffffff;fill-opacity:1;fill-rule:nonzero;stroke:none;stroke-width:1.33333" /></g></svg>
