<?xml version="1.0" encoding="UTF-8" standalone="no"?>
<!-- Created with Inkscape (http://www.inkscape.org/) -->

<svg
   version="1.1"
   id="svg1"
   width="628.0885"
   height="552.15216"
   viewBox="0 0 628.0885 552.15218"
   sodipodi:docname="شعار.pdf"
   inkscape:version="1.3 (0e150ed6c4, 2023-07-21)"
   inkscape:dataloss="true"
   xml:space="preserve"
   xmlns:inkscape="http://www.inkscape.org/namespaces/inkscape"
   xmlns:sodipodi="http://sodipodi.sourceforge.net/DTD/sodipodi-0.dtd"
   xmlns:xlink="http://www.w3.org/1999/xlink"
   xmlns="http://www.w3.org/2000/svg"
   xmlns:svg="http://www.w3.org/2000/svg"><defs
     id="defs1"><linearGradient
       x1="118.53403"
       y1="-53.053001"
       x2="111.85229"
       y2="-86.060783"
       gradientUnits="userSpaceOnUse"
       gradientTransform="matrix(5.64242,0,0,5.64242,-344.06787,759.26168)"
       spreadMethod="pad"
       id="linearGradient2"><stop
         style="stop-opacity:1;stop-color:#ff8f00"
         offset="0"
         id="stop1" /><stop
         style="stop-opacity:1;stop-color:#feaf00"
         offset="1"
         id="stop2" /></linearGradient><linearGradient
       inkscape:collect="always"
       xlink:href="#linearGradient2"
       id="linearGradient10"
       gradientUnits="userSpaceOnUse"
       gradientTransform="matrix(7.5232265,0,0,7.5232265,634.20702,1316.3709)"
       x1="118.53403"
       y1="-53.053001"
       x2="111.85229"
       y2="-86.060783"
       spreadMethod="pad" /></defs><sodipodi:namedview
     id="namedview1"
     pagecolor="#ffffff"
     bordercolor="#000000"
     borderopacity="0.25"
     inkscape:showpageshadow="2"
     inkscape:pageopacity="0.0"
     inkscape:pagecheckerboard="0"
     inkscape:deskcolor="#d1d1d1"
     inkscape:zoom="0.72426352"
     inkscape:cx="442.51849"
     inkscape:cy="826.35668"
     inkscape:window-width="1920"
     inkscape:window-height="1009"
     inkscape:window-x="-8"
     inkscape:window-y="-8"
     inkscape:window-maximized="1"
     inkscape:current-layer="g1" /><g
     id="g1"
     inkscape:groupmode="layer"
     inkscape:label="1"
     transform="translate(-1177.1095,-568.986)"><path
       id="path9"
       d="m 1464.9748,958.64204 c -13.3386,-3.02134 -31.7133,-9.86534 -40.828,-15.208 -22.7093,-13.308 -53.4853,-48.79734 -68.204,-78.65733 -11.5253,-23.37467 -15.5666,-44.448 -15.2546,-67.52534 0.3333,-24.792 3.2293,-42.11466 18.3333,-72.09333 8.4267,-16.724 17.3067,-31.032 19.74,-31.792 2.5667,-0.808 5.484,4.948 6.9787,13.776 1.4066,8.33867 4.76,18.172 7.4533,21.85334 4.2133,5.76133 5.1773,3.24533 6.8747,-17.95734 2.532,-31.49466 17.1986,-62.86533 40.6466,-86.92799 18.6667,-19.16134 63.9107,-48.15067 82.0307,-52.56134 l 10.5307,-2.56266 -7.5774,16.692 c -14.86,32.75066 -8.292,60.44799 30.0827,126.93199 12.9947,22.51067 24.6667,46.15734 25.948,52.552 1.276,6.39067 3.7507,12.50533 5.4947,13.584 5.464,3.37467 15.7866,-21.66133 20.5213,-49.77066 l 4.5467,-26.97467 10.0266,17.204 c 15.1294,25.95733 19.468,48.968 17.192,91.124 -2.812,52.032 -13.3386,82.96933 -37.052,108.91733 -34.6253,37.88533 -83,51.74533 -137.484,39.396 z"
       style="fill:url(#linearGradient10);stroke:none;stroke-width:1.33333" /><path
       id="path10"
       d="m 1183.8082,1114.73 c -6.188,-6.864 -6.6987,-21.6773 -6.6987,-193.55196 V 735.05271 l 10.328,-8.124 c 6.6107,-5.19867 14.5373,-7.71333 22.0213,-6.98 l 11.6934,1.14667 1.9106,149.53599 c 1.724,134.27603 2.604,150.58403 8.656,159.81203 10.0374,15.308 24.4014,20.9693 60.4014,23.8186 40.3493,3.192 81.6613,13.9 110.1773,28.5667 24.4013,12.548 45.9733,28.9533 42.588,32.3813 -1.224,1.2334 -12.4267,0.208 -24.8947,-2.2813 -28.6573,-5.7293 -129.0533,-5.5267 -164.3706,0.328 -56.4534,9.3587 -64.5467,9.5253 -71.812,1.4733 z m 566.5053,2.6667 c -5.964,-1.7867 -33.6933,-5.312 -61.62,-7.8333 -39.636,-3.572 -60.708,-3.552 -95.9893,0.084 -24.8654,2.5626 -47.776,5.6506 -50.9227,6.8533 -13.2707,5.0947 -0.948,-9.5147 19.776,-23.4373 30.568,-20.5467 69.0107,-32.6454 119.1467,-37.5107 45.8586,-4.4467 59.5626,-9.3693 69.88,-25.1093 6.0466,-9.228 6.932,-25.536 8.6506,-159.81203 l 1.9174,-149.53599 12.38,-1.19867 c 9.1506,-0.88 14.9013,1.32267 22.02,8.44267 l 9.6413,9.64133 v 183.15066 c 0,207.79203 1.0253,200.43733 -27.984,199.84403 -8.8333,-0.1774 -20.9387,-1.792 -26.896,-3.5787 z m -295.5467,-33 c -18.048,-16.036 -56.7666,-36.344 -85.6626,-44.9267 -11.296,-3.3546 -39.728,-8.0626 -63.1814,-10.464 -27.5733,-2.8173 -45.016,-6.4373 -49.3493,-10.2386 -6.1973,-5.4427 -6.6973,-19.10003 -6.6973,-182.78136 0,-206.85466 -3.272,-191.828 41.3746,-190.19333 29.812,1.08933 76.968,10.19867 82.7547,15.984 2.6253,2.62533 2.7133,5.704 0.2507,8.99067 -16.152,21.536 -32.7614,50.172 -40.292,69.47333 -12.7187,32.584 -12.86,90.24533 -0.292,120.55733 10.6466,25.69333 36.7186,62.828 56.932,81.088 17.048,15.40133 49.532,31.672 70.8653,35.49066 l 14.3587,2.572 v 59.188 c 0,32.5573 -1.2907,59.12 -2.8694,59.0307 -1.5773,-0.088 -9.7653,-6.2854 -18.192,-13.7707 z m 52.5614,-44.4733 1.0573,-58.4067 21.5893,-2.31733 c 51.4067,-5.52667 96.8694,-44.14667 116.0827,-98.60933 3.188,-9.032 7.62,-31.11467 9.8547,-49.068 7.5106,-60.44267 -5.12,-107.948 -38.9174,-146.396 -8.1293,-9.244 -14.78,-18.08266 -14.78,-19.64 0,-7.71333 49.8534,-18.776 89.1707,-19.78666 42.048,-1.07867 38.9387,-14.964 40.2667,179.89066 0.624,92.07733 0.1186,173 -1.1254,179.81736 -1.24,6.8226 -5.2026,13.9586 -8.7973,15.8653 -3.5933,1.9053 -25.1453,5.452 -47.8907,7.8853 -22.744,2.4374 -52.9053,7.9267 -67.02,12.2134 -28.7973,8.7346 -70.688,31.9786 -84.74,47.02 -5.1093,5.464 -10.7546,9.9373 -12.5466,9.9373 -1.792,0 -2.7867,-26.2853 -2.204,-58.4053 z"
       style="fill:#212e3e;fill-opacity:1;fill-rule:nonzero;stroke:none;stroke-width:1.33333"
       inkscape:export-filename="RC_logo_color.svg"
       inkscape:export-xdpi="96"
       inkscape:export-ydpi="96" /></g></svg>
